<svg width="156" height="16" fill="none" xmlns="http://www.w3.org/2000/svg"><circle cx="8" cy="8" r="7.1" stroke="#1F4E96" stroke-width="1.4"/><path d="M2.38 3.227c.2.96 1.415 3.265 2.34 4.57.435 3.21 2.07 5.185 2.07 5.185.983.334 1.968-3.564 2.01-4.695.053-1.686-2.376-.834-3.645-.599-.272-.326-.25-1.479.49-2.175.924-.87 4.157-3.979 3.56-4.686" stroke="#1F4E96" stroke-width="1.4" stroke-linejoin="round"/><path d="M13.151 2.575c-.689.653-1.882 2.34-1.142 3.862.74 1.523 2.484 2.955 3.263 3.481" stroke="#1F4E96" stroke-width="1.4"/><path d="M24.092 11.632c.957 0 2.178-.341 3.025-1.419l-1.21-.814c-.418.517-1.1.847-1.727.847-1.265 0-2.057-.858-2.057-2.002 0-1.617 1.166-2.816 2.552-2.816.847 0 1.551.418 1.837 1.199l1.496-.506c-.429-1.111-1.463-2.079-3.256-2.079-2.277 0-4.268 1.705-4.268 4.301 0 2.002 1.584 3.289 3.608 3.289Zm7.627 0c2.42 0 4.268-1.914 4.268-4.312 0-2.013-1.584-3.278-3.608-3.278-2.42 0-4.268 1.903-4.268 4.301 0 2.013 1.573 3.289 3.608 3.289Zm.088-1.386c-1.177 0-2.057-.77-2.057-2.002 0-1.573 1.111-2.816 2.53-2.816 1.177 0 2.068.77 2.068 2.002 0 1.573-1.122 2.816-2.541 2.816ZM44.123 11.5l1.617-7.337h-2.255L40.691 8.75l-.77-4.587h-2.134L36.17 11.5h1.562l1.166-5.291.902 5.291h.682l3.234-5.291L42.55 11.5h1.573Zm3.02 0 .582-2.618h1.837c2.3 0 3.036-1.595 3.036-2.684a2.019 2.019 0 0 0-2.046-2.035h-3.355L45.58 11.5h1.562Zm2.507-3.993h-1.628l.44-1.969h1.595c.54 0 .913.341.913.825 0 .649-.528 1.144-1.309 1.144h-.01Zm8.756 3.993-1.023-2.717c1.188-.22 2.09-1.232 2.09-2.552 0-1.276-1.078-2.068-2.266-2.068h-3.135L52.455 11.5h1.562l.572-2.607h1.21l.87 2.607h1.737Zm-1.88-3.982h-1.629l.44-1.98h1.573c.484 0 .935.352.935.847 0 .66-.495 1.133-1.309 1.133h-.01Zm9.84 3.982-1.21-7.337h-1.958L58.754 11.5h1.859l.726-1.243h3.146l.187 1.243h1.694Zm-2.002-2.618h-2.288l1.837-3.157.45 3.157ZM71.43 11.5l1.617-7.337h-1.562L69.868 11.5h1.562Zm8.024 0 1.617-7.337h-1.562l-1.045 4.675-2.354-4.675h-1.606L72.887 11.5h1.562l1.078-4.862 2.42 4.862h1.507Zm4.714 0 1.309-5.962h2.145l.297-1.375h-5.852l-.297 1.375h2.145l-1.32 5.962h1.573Zm8.327 0 .297-1.375h-3.62l.364-1.672h3.553l.297-1.375h-3.542l.34-1.54h3.62l.308-1.375H88.92L87.303 11.5h5.192Zm7.172 0-1.023-2.717c1.188-.22 2.09-1.232 2.09-2.552 0-1.276-1.078-2.068-2.266-2.068h-3.135L93.716 11.5h1.562l.572-2.607h1.21l.869 2.607h1.738Zm-1.881-3.982h-1.628l.44-1.98h1.573c.484 0 .935.352.935.847 0 .66-.495 1.133-1.309 1.133h-.011Zm9.565 3.982 1.617-7.337h-1.562l-1.045 4.675-2.354-4.675h-1.606l-1.617 7.337h1.562l1.078-4.862 2.42 4.862h1.507Zm8.289 0-1.21-7.337h-1.958l-4.444 7.337h1.859l.726-1.243h3.146l.187 1.243h1.694Zm-2.002-2.618h-2.288l1.837-3.157.451 3.157Zm6.156 2.75c.957 0 2.178-.341 3.025-1.419l-1.21-.814c-.418.517-1.1.847-1.727.847-1.265 0-2.057-.858-2.057-2.002 0-1.617 1.166-2.816 2.552-2.816.847 0 1.551.418 1.837 1.199l1.496-.506c-.429-1.111-1.463-2.079-3.256-2.079-2.277 0-4.268 1.705-4.268 4.301 0 2.002 1.584 3.289 3.608 3.289Zm5.154-.132 1.617-7.337h-1.562l-1.617 7.337h1.562Zm5.416.132c2.42 0 4.268-1.914 4.268-4.312 0-2.013-1.584-3.278-3.608-3.278-2.42 0-4.268 1.903-4.268 4.301 0 2.013 1.573 3.289 3.608 3.289Zm.088-1.386c-1.177 0-2.057-.77-2.057-2.002 0-1.573 1.111-2.816 2.53-2.816 1.177 0 2.068.77 2.068 2.002 0 1.573-1.122 2.816-2.541 2.816Zm10.931 1.254L143 4.163h-1.562l-1.045 4.675-2.354-4.675h-1.606l-1.617 7.337h1.562l1.078-4.862 2.42 4.862h1.507Zm8.288 0-1.21-7.337h-1.958l-4.444 7.337h1.859l.726-1.243h3.146l.187 1.243h1.694Zm-2.002-2.618h-2.288l1.837-3.157.451 3.157Zm7.289 2.618.297-1.375h-3.102l1.32-5.962H151.9l-1.617 7.337h4.675Z" fill="#1F4E96"/></svg>